<svg xmlns="http://www.w3.org/2000/svg" viewBox="0 0 1200 600" preserveAspectRatio="xMidYMid meet" role="img" aria-label="Oklahoma counties map">
  <g class="ok-counties">
    <path class="ok-county" data-fips="40001" data-name="Adair" d="M1173.82,155.66L1186.28,244.22L1140.05,244.22L1140.05,199.81L1141.44,199.82L1141.43,155.72L1173.82,155.66Z"/>
    <path class="ok-county" data-fips="40003" data-name="Alfalfa" d="M623.77,13.94L683.56,14.09L684.58,104.64L625.33,104.61L623.77,13.94Z"/>
    <path class="ok-county" data-fips="40005" data-name="Atoka" d="M1020.61,421.06L1020.65,435.8L1005.77,435.84L1005.77,495.06L918.99,494.95L919.03,450.74L955.26,450.71L955.22,435.92L962.61,435.91L962.57,406.38L991.58,406.4L991.57,421.12L1020.61,421.06Z"/>
    <path class="ok-county" data-fips="40007" data-name="Beaver" d="M292.15,14.08L422.41,13.48L422.26,98.47L290.97,98.47L291.01,39.48L292.16,39.4L292.15,14.08Z"/>
    <path class="ok-county" data-fips="40009" data-name="Beckham" d="M510.6,266.18L511.16,332.56L504.37,332.59L501.41,333.99L499.98,333.72L500.03,332.59L452.76,332.55L452.75,347.22L422.71,347.17L422.71,280.82L481.37,280.93L481.39,266.16L510.6,266.18Z"/>
    <path class="ok-county" data-fips="40011" data-name="Blaine" d="M669.95,155.13L670.4,229.57L655.75,229.56L655.76,258.96L611.72,258.94L611.06,155.13L669.95,155.13Z"/>
    <path class="ok-county" data-fips="40013" data-name="Bryan" d="M976.46,495.04L981.53,496.26L982.18,499.67L983.84,500.32L984.22,531.49L986.69,534.42L992.04,535.8L994.47,540.65L997.32,542.88L1001.77,543.65L1004.75,543.02L1005.48,543.88L1006.33,542.85L1008.17,543.09L1009.34,545.69L1008.55,547.1L1006.62,548.02L1004.09,545.54L1000.28,545.46L999.97,548.7L997.74,549.41L994.7,546.55L984.25,540.69L983.46,544.9L981.98,545.79L977.37,546.48L977.38,544.3L974.9,542.98L976.01,544.97L975.53,546.8L972.45,548.56L972.52,546.12L971.57,545.71L970.51,548.12L968.55,549.27L961.47,547.32L961.57,550.28L958.32,548.67L955.06,548.95L954.47,552.56L952.3,552.41L950.56,553.71L951.77,555.27L952.68,553.23L953.65,553.18L952.48,558.8L950.7,562.12L944.75,564.34L937.9,560.75L934.9,561.12L933.44,563.75L931.52,572.54L927.19,574.67L925.27,573.75L924.25,569.52L918.87,563.69L916.92,559.49L913.41,558.65L911.87,559.63L906.13,560.07L904.03,557.5L902.55,551.9L896.16,552.21L888.37,547.74L888.91,545.87L894.36,540.67L893.65,537.97L895.05,535.9L893.67,535.26L895.1,534.47L893.86,533.79L892.9,530.87L893.49,529.79L894.52,530.07L895.74,527.93L894.46,527.11L894.45,525.89L893.3,526.49L891.48,524.64L892.04,523.63L890.26,523.15L888.99,519.94L889.53,520.65L890.07,519.86L891.83,520.25L893.33,518.75L894.32,520.24L895.33,520.04L896.11,518.14L895.24,517.76L896.16,516.6L895.18,516.3L895.97,515.27L895.42,513.46L896.26,513.07L895.68,514.31L896.45,514.33L899.67,510.77L899.18,509.4L897.35,508.52L898.51,507.84L896.75,507.24L897.18,506.45L894.44,502.21L912.61,502.22L912.6,494.95L976.46,495.04Z"/>
    <path class="ok-county" data-fips="40015" data-name="Caddo" d="M612.95,258.94L656.45,258.96L656.71,288.47L685.78,288.37L686.24,376.87L613.41,376.86L612.95,258.94Z"/>
    <path class="ok-county" data-fips="40017" data-name="Canadian" d="M744.07,229.42L744.4,295.45L739.62,297.3L738.03,296.54L735.54,297.43L731.5,294.34L720.89,295.84L718.93,294.4L717.85,291.14L716.88,291.01L713.35,293.88L711.56,292.17L709.64,292.02L708.25,288.96L706.94,288.46L705.95,292.73L704.49,293.49L701.78,291.5L697.64,290.6L696.62,287.75L696.17,288.41L656.71,288.47L655.75,229.56L744.07,229.42Z"/>
    <path class="ok-county" data-fips="40019" data-name="Carter" d="M788.53,435.8L788.52,457.9L832.13,458.04L832.81,462.25L831.25,463.6L833.16,465.28L846.36,465.27L846.33,492.38L841.53,492.36L841.57,509.59L759.48,509.55L759.48,435.78L788.53,435.8Z"/>
    <path class="ok-county" data-fips="40021" data-name="Cherokee" d="M1141.43,155.72L1141.44,199.82L1140.05,199.81L1140.05,244.22L1095.83,244.17L1095.82,214.73L1076.73,214.65L1076.62,213.44L1078.44,212.33L1082.01,206.37L1081.34,204.61L1077.83,203.81L1074.54,199.28L1074.5,197.1L1076.33,194.58L1075.08,188.72L1078.6,185.1L1081.05,184.51L1081.07,182.66L1082.29,181.48L1082.3,176.3L1084.7,176.29L1084.71,170.4L1097.1,170.44L1097.07,155.68L1141.43,155.72Z"/>
    <path class="ok-county" data-fips="40023" data-name="Choctaw" d="M1005.77,495.06L1091.82,495.0L1091.9,532.28L1087.69,529.85L1081.59,528.23L1081.13,530.44L1078.4,533.12L1079.15,536.42L1078.41,539.49L1076.49,540.83L1076.34,536.82L1075.16,536.66L1074.02,538.23L1074.76,542.2L1072.77,543.16L1067.37,540.83L1066.5,543.8L1051.64,543.78L1049.31,543.02L1049.71,540.34L1046.92,542.22L1043.73,542.64L1042.95,539.57L1038.12,541.85L1037.17,540.47L1037.58,537.17L1036.16,533.4L1032.49,532.67L1031.17,531.46L1030.05,533.91L1027.24,535.23L1025.44,537.39L1021.53,537.13L1017.47,540.91L1015.24,541.13L1010.37,539.2L1008.8,539.9L1007.73,543.42L997.32,542.88L994.47,540.65L992.04,535.8L986.69,534.42L984.22,531.49L983.84,500.32L982.18,499.67L981.53,496.26L976.46,495.04L1005.77,495.06Z"/>
    <path class="ok-county" data-fips="40025" data-name="Cimarron" d="M142.6,14.93L142.03,98.31L8.03,98.34L8.06,13.75L142.6,14.93Z"/>
    <path class="ok-county" data-fips="40027" data-name="Cleveland" d="M817.56,335.09L817.52,364.42L810.98,364.33L807.76,361.6L806.49,362.07L806.47,363.71L805.8,363.7L804.77,361.56L801.35,359.79L798.17,359.99L798.34,358.08L792.46,360.15L792.76,357.66L789.12,357.15L789.56,355.88L788.53,354.09L789.4,350.88L787.97,346.82L789.13,345.59L787.94,338.92L786.39,337.81L783.8,338.62L781.42,337.04L781.04,328.97L777.17,327.76L773.23,321.78L769.27,318.06L768.71,318.68L767.54,318.06L765.58,315.65L764.04,316.91L761.53,315.52L758.95,310.98L760.79,310.05L759.19,308.77L760.59,305.04L758.23,301.52L751.51,300.95L751.18,299.96L749.66,299.94L747.35,296.06L746.15,296.7L744.59,295.98L744.45,288.45L817.58,288.53L817.56,335.09Z"/>
    <path class="ok-county" data-fips="40029" data-name="Coal" d="M962.57,391.65L962.61,435.91L955.22,435.92L955.26,450.71L904.33,450.55L904.56,406.48L919.15,406.45L919.15,391.65L962.57,391.65Z"/>
    <path class="ok-county" data-fips="40031" data-name="Comanche" d="M686.24,376.87L686.73,406.29L679.48,406.29L679.4,435.76L665.32,435.77L665.31,443.08L658.17,443.12L658.17,445.57L629.31,445.52L629.31,450.42L614.86,450.38L614.86,452.83L607.59,452.86L607.62,435.71L584.93,435.72L584.89,376.79L686.24,376.87Z"/>
    <path class="ok-county" data-fips="40033" data-name="Cotton" d="M679.4,435.76L679.47,498.25L675.72,502.24L673.17,502.06L669.04,500.92L666.92,498.79L663.61,499.67L658.86,499.17L654.08,496.02L648.53,495.01L645.91,496.87L646.53,499.44L645.24,499.03L643.99,499.84L643.81,504.66L642.21,504.6L641.79,507.18L638.24,507.31L637.01,509.15L634.78,509.1L633.91,510.47L631.76,510.94L621.54,500.61L622.94,499.14L621.65,499.04L616.18,494.4L614.75,494.99L614.84,465.1L607.63,465.14L607.59,452.86L614.86,452.83L614.86,450.38L629.31,450.42L629.31,445.52L658.17,445.57L658.17,443.12L665.31,443.08L665.32,435.77L679.4,435.76Z"/>
    <path class="ok-county" data-fips="40035" data-name="Craig" d="M1057.12,13.9L1112.38,13.85L1108.72,14.75L1109.56,17.71L1108.22,18.02L1110.36,20.41L1114.37,22.39L1113.53,23.37L1113.49,81.82L1112.65,81.91L1112.64,96.75L1068.12,96.67L1068.07,81.89L1053.83,81.89L1053.8,23.46L1057.1,23.48L1057.12,13.9Z"/>
    <path class="ok-county" data-fips="40037" data-name="Creek" d="M953.32,207.22L948.71,207.24L948.7,244.13L889.57,244.15L889.47,155.36L934.15,155.57L934.16,170.22L971.21,170.28L970.72,207.28L953.32,207.22Z"/>
    <path class="ok-county" data-fips="40039" data-name="Custer" d="M611.72,214.8L611.72,258.94L612.95,258.94L612.94,273.7L510.57,273.54L510.62,258.93L508.83,258.92L508.96,214.83L611.72,214.8Z"/>
    <path class="ok-county" data-fips="40041" data-name="Delaware" d="M1166.19,69.99L1166.21,98.5L1173.82,155.66L1111.87,155.65L1112.65,81.91L1113.49,81.82L1113.49,69.51L1166.19,69.99Z"/>
    <path class="ok-county" data-fips="40043" data-name="Dewey" d="M567.0,155.69L611.06,155.13L611.72,214.8L508.96,214.83L508.11,155.23L567.0,155.69Z"/>
    <path class="ok-county" data-fips="40045" data-name="Ellis" d="M477.25,82.71L477.36,141.29L478.6,141.28L478.58,155.27L508.11,155.23L508.27,180.85L498.75,182.01L494.94,185.47L493.6,185.57L491.97,187.53L489.72,195.6L484.83,200.18L483.75,205.73L477.77,207.44L475.28,209.77L461.84,206.78L457.79,203.02L455.77,203.23L453.68,201.97L453.13,200.4L450.2,198.17L448.98,195.08L450.08,187.85L449.09,183.03L446.18,181.97L443.27,182.17L440.41,184.95L437.49,185.53L435.0,189.49L435.42,195.21L426.81,201.76L422.71,203.19L422.35,82.63L477.25,82.71Z"/>
    <path class="ok-county" data-fips="40047" data-name="Garfield" d="M773.4,82.59L773.52,155.2L684.69,155.13L684.66,82.55L773.4,82.59Z"/>
    <path class="ok-county" data-fips="40049" data-name="Garvin" d="M846.47,376.95L846.5,413.8L817.46,413.75L817.5,416.2L809.62,416.17L810.86,420.62L813.09,420.87L814.13,422.11L813.07,422.51L814.47,424.48L812.89,425.01L813.47,426.16L815.46,426.19L814.44,426.94L815.38,428.23L814.34,431.69L815.5,433.27L817.24,433.22L816.08,434.21L817.29,435.84L759.39,435.77L759.43,406.29L744.83,406.25L744.89,376.83L846.47,376.95Z"/>
    <path class="ok-county" data-fips="40051" data-name="Grady" d="M685.78,288.37L696.17,288.41L696.62,287.75L697.64,290.6L701.78,291.5L704.49,293.49L705.95,292.73L706.44,288.92L707.21,288.51L708.31,289.04L709.64,292.02L711.56,292.17L713.35,293.88L716.88,291.01L717.85,291.14L718.93,294.4L720.89,295.84L731.5,294.34L735.54,297.43L738.03,296.54L739.62,297.3L744.4,295.45L744.83,406.25L686.73,406.29L685.78,288.37Z"/>
    <path class="ok-county" data-fips="40053" data-name="Grant" d="M683.56,14.09L773.31,13.99L773.28,82.59L683.94,82.55L683.56,14.09Z"/>
    <path class="ok-county" data-fips="40055" data-name="Greer" d="M504.36,332.93L505.96,334.59L505.9,336.37L507.24,337.29L508.78,336.7L508.99,338.27L510.01,337.44L510.49,341.88L509.42,342.11L509.67,343.27L512.26,343.37L512.69,345.07L516.2,345.8L516.04,347.12L514.45,348.12L515.79,349.42L514.62,354.27L512.83,355.29L513.37,357.2L514.72,356.92L515.2,361.66L518.06,363.47L517.42,364.86L519.68,365.17L520.92,368.71L519.67,369.39L520.66,371.57L517.94,371.15L517.07,374.07L518.77,376.62L521.85,377.81L522.51,379.5L525.53,380.02L526.86,384.14L504.85,383.96L504.86,391.41L500.49,391.39L500.01,392.8L500.53,396.92L499.85,398.35L501.14,397.91L502.44,398.86L468.78,398.92L468.71,394.0L466.29,394.01L466.28,391.54L461.43,391.53L461.44,376.51L459.91,376.52L459.89,361.77L438.18,361.8L438.16,347.19L452.75,347.22L452.76,332.55L500.03,332.59L499.98,333.72L501.41,333.99L502.47,332.93L504.36,332.93Z"/>
    <path class="ok-county" data-fips="40057" data-name="Harmon" d="M438.16,347.19L438.18,361.8L459.89,361.77L459.91,376.52L461.44,376.51L461.43,391.53L466.28,391.54L466.29,394.01L468.71,394.0L468.82,435.74L444.23,435.78L438.13,428.41L432.81,424.07L429.04,423.71L426.7,426.42L422.71,426.71L422.71,347.17L438.16,347.19Z"/>
    <path class="ok-county" data-fips="40059" data-name="Harper" d="M422.41,13.48L497.88,13.86L499.65,14.53L502.22,22.62L505.99,27.18L509.13,34.04L517.49,38.11L517.17,40.77L520.12,44.27L520.11,82.3L422.35,82.63L422.41,13.48Z"/>
    <path class="ok-county" data-fips="40061" data-name="Haskell" d="M1106.53,274.64L1109.99,275.62L1110.15,279.48L1112.83,282.32L1120.15,283.19L1123.69,285.82L1126.99,284.95L1128.17,288.82L1124.58,292.37L1125.25,293.49L1131.54,292.13L1134.82,289.55L1136.75,290.44L1137.48,295.88L1139.18,297.58L1139.09,318.06L1123.39,318.02L1123.4,342.45L1065.17,342.45L1065.17,325.18L1050.59,325.16L1051.1,302.21L1053.97,301.02L1056.64,297.57L1059.53,296.88L1064.35,300.79L1064.87,303.18L1067.58,301.73L1071.86,301.29L1077.93,307.33L1079.75,308.03L1081.48,307.3L1084.51,304.27L1085.92,300.92L1088.76,301.36L1089.71,300.59L1088.31,294.44L1090.27,292.55L1092.99,293.75L1093.91,292.13L1091.22,289.79L1094.5,287.94L1096.76,289.27L1099.25,285.13L1101.55,283.61L1103.69,276.63L1106.53,274.64Z"/>
    <path class="ok-county" data-fips="40063" data-name="Hughes" d="M977.87,303.24L977.55,326.66L973.6,327.75L974.03,332.21L971.16,331.94L966.88,336.81L965.62,342.92L963.02,343.89L962.57,391.65L919.15,391.65L919.18,363.76L916.41,368.68L910.34,366.36L907.5,367.45L907.55,332.69L914.33,332.71L914.33,303.21L977.87,303.24Z"/>
    <path class="ok-county" data-fips="40065" data-name="Jackson" d="M540.24,387.1L538.44,387.33L538.04,388.29L538.32,391.48L540.14,392.6L538.44,392.86L538.48,394.37L537.0,393.73L539.59,399.18L539.35,401.94L546.75,403.87L553.55,402.8L555.78,405.26L554.82,406.99L549.05,407.18L547.77,408.24L546.66,413.69L549.81,416.24L549.76,417.53L548.2,417.9L549.13,418.69L549.42,421.64L547.92,422.21L546.85,421.02L543.69,422.9L542.64,421.36L538.34,422.05L535.36,426.55L536.13,428.51L537.26,428.97L536.21,430.23L533.87,429.33L532.11,436.32L530.28,438.0L529.91,440.3L531.22,439.98L530.35,443.12L531.47,444.23L529.23,445.43L529.09,447.39L530.28,449.58L529.4,450.56L528.13,449.12L528.33,453.38L529.67,453.76L529.37,456.04L531.95,455.09L530.44,457.95L532.22,458.24L534.1,461.06L533.51,464.1L529.13,463.94L528.22,459.66L526.61,459.39L527.34,458.5L525.16,458.51L522.92,456.43L525.13,455.36L524.8,453.28L522.21,453.77L521.45,451.79L520.2,451.27L516.75,452.37L514.76,449.21L511.63,446.74L511.79,444.88L509.84,443.94L508.27,444.24L506.34,446.75L506.07,450.71L507.45,452.02L506.03,457.62L504.93,458.47L502.25,456.26L501.4,458.75L500.4,458.74L498.26,455.78L497.26,457.13L496.52,454.55L493.6,454.22L489.86,451.5L485.03,451.72L482.2,450.76L480.77,451.06L480.03,455.75L478.01,458.16L474.68,458.35L471.59,456.83L469.36,458.33L467.21,457.29L464.96,457.56L462.45,455.41L461.41,452.81L456.71,450.27L454.92,448.71L455.22,447.61L451.27,444.75L448.42,440.98L447.38,437.31L444.23,435.78L468.82,435.74L468.78,398.92L502.44,398.86L501.14,397.91L499.85,398.35L500.53,396.92L500.01,392.8L500.49,391.39L504.86,391.41L504.85,383.96L526.86,384.14L526.85,382.42L528.42,383.47L529.54,381.35L531.56,381.7L531.33,379.75L533.25,379.76L534.35,378.54L534.27,376.52L535.61,376.1L537.42,378.03L540.93,377.78L539.71,380.12L540.97,381.37L539.67,381.48L540.24,387.1Z"/>
    <path class="ok-county" data-fips="40067" data-name="Jefferson" d="M759.45,472.66L759.69,521.08L760.73,521.14L761.08,523.06L763.01,524.31L759.68,524.3L759.69,538.57L756.02,538.09L754.8,536.18L755.72,529.45L749.62,524.76L744.44,523.01L741.42,524.34L739.14,529.2L736.87,531.65L731.76,532.73L731.66,536.1L728.94,535.41L729.04,539.77L726.81,538.76L725.91,542.38L724.22,541.73L723.79,543.78L721.92,545.68L716.26,547.02L707.61,541.95L704.96,542.09L702.92,541.05L701.17,538.39L701.96,536.39L703.35,537.49L704.95,536.06L705.47,532.34L703.01,532.23L702.6,531.26L704.51,529.72L706.49,523.23L704.79,523.13L702.6,520.45L695.21,522.71L687.59,521.18L686.76,520.37L687.43,519.15L684.35,515.88L684.87,514.99L686.35,515.89L687.64,515.04L683.2,511.04L682.31,507.99L685.29,503.97L686.62,499.7L684.82,499.14L685.14,497.3L683.91,495.5L681.99,495.42L679.82,497.57L679.84,472.53L759.45,472.66Z"/>
    <path class="ok-county" data-fips="40069" data-name="Johnston" d="M904.32,436.04L904.33,450.55L919.03,450.74L918.99,494.95L912.6,494.95L912.61,502.22L894.44,502.21L894.87,500.37L892.4,498.78L892.01,496.93L891.58,497.86L890.59,497.65L891.34,496.84L889.55,494.16L888.44,495.56L886.73,494.77L887.09,493.13L884.66,494.3L882.75,492.43L846.33,492.38L846.36,465.27L853.6,465.22L853.63,435.95L904.32,436.04Z"/>
    <path class="ok-county" data-fips="40071" data-name="Kay" d="M773.31,13.99L871.72,13.94L871.36,50.66L866.36,50.68L866.35,53.12L861.67,53.12L862.17,55.07L860.6,57.07L857.38,56.75L855.3,55.49L852.56,55.78L848.14,61.55L846.57,66.9L837.95,66.61L833.82,65.67L832.67,64.22L829.81,65.87L828.31,67.22L828.24,70.07L828.68,72.83L830.05,74.5L829.97,79.35L831.11,81.36L829.23,82.55L773.28,82.59L773.31,13.99Z"/>
    <path class="ok-county" data-fips="40073" data-name="Kingfisher" d="M670.4,229.57L669.95,155.13L743.83,155.17L744.07,229.42L670.4,229.57Z"/>
    <path class="ok-county" data-fips="40075" data-name="Kiowa" d="M511.16,332.56L595.57,332.6L597.39,335.21L598.03,332.99L600.02,333.13L599.56,333.96L600.73,334.58L602.7,333.37L604.6,334.14L604.5,332.96L605.48,334.04L606.17,332.17L608.98,331.3L610.27,332.01L609.15,332.74L609.85,333.42L610.69,331.46L611.76,332.31L613.3,336.84L613.41,376.86L584.89,376.79L584.91,421.0L560.78,420.98L560.76,413.62L546.65,413.59L547.94,407.95L549.05,407.18L554.82,406.99L555.75,404.75L553.55,402.8L546.75,403.87L540.3,402.7L539.02,401.46L539.59,399.18L537.0,393.73L538.48,394.37L538.44,392.86L540.14,392.6L538.32,391.48L538.04,388.29L538.44,387.33L540.29,386.94L539.67,381.48L540.97,381.37L539.71,380.12L540.88,377.73L537.42,378.03L536.51,376.33L534.47,376.35L534.21,378.76L533.18,379.8L531.29,379.81L531.56,381.7L529.54,381.35L527.93,383.45L525.48,379.97L522.51,379.5L521.85,377.81L518.77,376.62L517.07,374.07L517.94,371.15L520.66,371.57L519.67,369.39L520.92,368.71L519.68,365.17L517.42,364.86L518.06,363.47L515.2,361.66L514.72,356.92L513.37,357.2L512.83,355.29L514.62,354.27L515.79,349.42L514.45,348.12L516.04,347.12L516.2,345.8L512.69,345.07L512.26,343.37L509.67,343.27L509.42,342.11L510.49,341.88L510.01,337.44L508.99,338.27L508.78,336.7L507.24,337.29L505.9,336.37L505.96,334.59L504.36,332.93L511.16,332.56Z"/>
    <path class="ok-county" data-fips="40077" data-name="Latimer" d="M1123.4,342.45L1123.4,362.09L1113.7,362.1L1113.76,376.85L1105.21,376.85L1105.2,406.35L1042.36,406.29L1043.31,347.37L1065.16,347.35L1065.48,342.43L1123.4,342.45Z"/>
    <path class="ok-county" data-fips="40079" data-name="Le Flore" d="M1189.26,381.46L1187.87,435.69L1122.05,435.78L1122.03,406.33L1105.2,406.35L1105.21,376.85L1113.76,376.85L1113.7,362.1L1123.4,362.09L1123.39,318.02L1139.09,318.06L1139.18,297.58L1141.84,296.95L1144.48,292.52L1147.93,291.89L1150.73,292.74L1154.11,295.9L1157.16,297.09L1157.86,300.72L1159.18,302.37L1162.06,303.02L1165.2,301.95L1169.4,296.8L1172.54,296.84L1176.6,300.69L1180.4,300.06L1182.94,297.07L1183.2,292.63L1185.1,289.34L1187.11,288.35L1190.75,288.58L1191.63,286.74L1189.26,381.46Z"/>
    <path class="ok-county" data-fips="40081" data-name="Lincoln" d="M889.5,192.94L888.98,273.99L817.66,273.76L817.75,192.89L889.5,192.94Z"/>
    <path class="ok-county" data-fips="40083" data-name="Logan" d="M773.52,155.2L788.28,155.23L788.28,185.59L791.33,181.94L794.54,181.18L796.72,182.45L798.67,187.35L803.58,187.75L806.61,189.04L809.04,192.39L813.35,193.03L816.25,191.77L817.76,189.99L817.69,229.69L744.07,229.42L743.83,155.17L773.52,155.2Z"/>
    <path class="ok-county" data-fips="40085" data-name="Love" d="M841.31,509.59L841.35,519.38L846.17,519.39L846.17,529.29L840.91,532.47L839.95,531.47L840.01,529.0L837.95,530.18L839.28,540.43L833.92,547.91L831.15,548.92L829.41,545.98L827.93,545.23L825.08,546.34L824.81,548.55L829.33,549.38L830.54,552.4L826.31,553.28L824.44,554.74L825.26,564.93L821.79,569.09L819.75,569.5L815.84,568.3L813.38,566.01L812.28,563.14L810.47,562.18L811.23,560.57L808.79,555.19L808.85,552.24L810.11,550.22L813.46,549.46L814.15,547.43L812.19,539.32L808.69,536.09L805.88,536.03L803.72,537.45L801.72,544.73L798.35,544.36L794.46,540.42L794.01,543.61L791.3,546.12L791.0,544.79L792.5,541.74L791.24,541.18L789.13,547.93L786.68,551.42L784.77,552.23L778.25,552.15L774.58,550.61L773.22,548.18L774.8,543.43L774.86,539.92L773.59,537.77L769.96,535.63L767.97,535.19L760.98,538.86L759.72,538.75L759.68,524.3L763.01,524.31L761.08,523.06L760.73,521.14L759.69,521.08L759.71,509.55L841.31,509.59Z"/>
    <path class="ok-county" data-fips="40093" data-name="Major" d="M684.58,104.64L684.69,155.13L567.0,155.69L566.38,97.24L582.5,97.35L585.84,103.32L589.57,106.32L598.64,107.66L602.41,112.62L610.04,115.81L615.59,116.87L621.71,115.01L625.33,115.74L625.33,104.61L684.58,104.64Z"/>
    <path class="ok-county" data-fips="40095" data-name="Marshall" d="M894.44,502.21L897.18,506.45L896.75,507.24L898.51,507.84L897.35,508.52L899.18,509.4L899.67,510.77L896.45,514.33L895.68,514.31L896.26,513.07L895.42,513.46L895.97,515.27L895.18,516.3L896.16,516.6L895.24,517.76L896.11,518.14L895.33,520.04L894.32,520.24L893.33,518.75L891.83,520.25L890.07,519.86L889.53,520.65L888.99,519.94L890.26,523.15L892.04,523.63L891.48,524.64L893.3,526.49L894.41,525.86L894.46,527.11L895.71,527.7L894.52,530.07L893.49,529.79L892.91,530.78L893.86,533.79L895.1,534.47L893.67,535.26L895.05,535.9L893.65,537.97L894.01,539.36L888.51,539.45L883.14,535.64L881.24,539.15L880.71,544.79L878.85,548.58L877.11,550.0L872.25,551.09L869.02,550.79L867.48,545.27L865.58,543.78L860.35,542.77L858.45,547.15L855.61,546.44L853.33,543.92L851.57,539.12L850.25,530.52L848.11,528.44L846.17,529.29L846.17,519.39L841.35,519.38L841.53,492.36L882.75,492.43L884.66,494.3L887.09,493.13L886.73,494.77L888.44,495.56L889.55,494.16L891.34,496.84L890.59,497.65L891.58,497.86L892.01,496.93L892.4,498.78L894.76,500.22L894.44,502.21Z"/>
    <path class="ok-county" data-fips="40097" data-name="Mayes" d="M1112.64,96.75L1111.87,155.65L1097.07,155.68L1097.1,170.44L1052.64,170.31L1053.27,96.69L1112.64,96.75Z"/>
    <path class="ok-county" data-fips="40087" data-name="McClain" d="M744.4,295.74L745.46,296.65L747.35,296.06L749.66,299.94L751.18,299.96L751.51,300.95L758.23,301.52L760.59,305.04L759.19,308.77L760.79,310.05L758.95,310.98L761.53,315.52L764.04,316.91L765.58,315.65L767.54,318.06L768.71,318.68L769.27,318.06L773.23,321.78L777.17,327.76L780.98,328.88L781.42,337.04L783.85,338.63L786.95,337.93L788.25,339.59L789.13,345.59L787.97,346.82L789.4,350.88L788.53,354.09L789.56,355.88L789.12,357.15L792.76,357.66L792.46,360.15L798.34,358.08L798.17,359.99L801.35,359.79L804.77,361.56L806.11,363.79L806.49,362.07L807.76,361.6L810.98,364.33L816.41,363.91L818.49,364.74L819.77,363.22L821.21,365.62L825.12,363.83L835.47,367.78L842.06,362.94L844.77,358.82L846.77,358.15L846.72,376.93L744.5,376.82L744.4,295.74Z"/>
    <path class="ok-county" data-fips="40089" data-name="McCurtain" d="M1187.86,435.69L1184.45,582.88L1183.65,583.12L1184.11,584.65L1181.86,585.79L1180.07,583.71L1179.76,586.23L1178.71,586.61L1177.58,585.28L1179.94,582.93L1179.29,582.33L1175.13,584.62L1172.83,584.47L1173.07,582.92L1176.18,580.75L1175.83,579.07L1171.44,581.76L1170.0,581.66L1174.16,578.02L1171.34,578.05L1171.5,576.15L1170.34,574.7L1169.24,578.48L1167.9,578.4L1165.72,575.31L1163.34,578.46L1160.04,579.02L1158.91,577.56L1160.15,576.57L1161.52,577.37L1162.42,576.83L1161.72,575.0L1163.32,573.17L1162.71,572.14L1161.58,574.76L1159.44,573.28L1156.97,575.01L1152.64,574.41L1152.88,572.84L1154.39,572.78L1154.66,571.88L1150.18,569.71L1152.67,573.23L1152.17,574.25L1150.02,573.84L1147.44,570.9L1149.88,569.64L1150.26,568.1L1149.06,567.85L1147.78,570.07L1146.9,569.35L1148.27,568.12L1147.71,566.55L1145.38,567.8L1142.63,566.33L1144.26,564.5L1146.77,564.1L1146.86,562.8L1145.38,562.04L1143.81,564.84L1140.75,566.82L1138.71,565.59L1139.38,563.74L1138.2,560.69L1136.79,562.21L1138.02,566.8L1137.2,565.42L1134.25,565.66L1131.42,564.57L1130.41,563.37L1131.77,561.98L1131.62,560.66L1130.76,560.58L1130.6,562.74L1124.27,557.05L1125.74,552.74L1124.67,550.8L1123.57,550.77L1124.03,553.96L1120.63,554.02L1119.85,552.65L1121.19,550.34L1118.35,549.17L1117.55,544.97L1115.02,546.81L1112.27,544.25L1110.35,545.31L1107.0,544.85L1105.13,538.19L1103.43,538.05L1103.63,539.26L1102.97,538.27L1103.12,537.28L1104.64,536.63L1104.14,535.57L1102.56,537.66L1102.05,541.92L1100.99,541.72L1099.51,539.36L1102.33,537.19L1102.43,535.2L1100.98,534.96L1097.19,537.73L1095.72,537.04L1095.25,535.8L1096.69,533.21L1095.33,532.26L1091.9,532.28L1092.54,480.3L1107.0,480.34L1106.97,435.72L1187.86,435.69Z"/>
    <path class="ok-county" data-fips="40091" data-name="McIntosh" d="M977.88,288.53L992.48,288.55L992.49,273.84L999.69,273.78L999.84,258.92L1065.77,258.83L1065.82,302.7L1064.87,303.18L1064.35,300.79L1059.53,296.88L1056.64,297.57L1053.97,301.02L1050.22,302.58L1044.32,301.38L1041.73,304.71L1042.3,307.76L1034.48,310.86L1030.64,314.79L1027.45,314.28L1030.09,311.62L1029.29,310.11L1027.2,310.33L1019.93,314.26L1019.12,315.68L1020.3,316.95L1019.53,317.86L1015.75,318.07L1014.36,320.33L1010.9,319.73L1008.97,322.34L1007.39,322.11L1005.03,319.25L1003.26,318.95L997.56,321.12L993.27,320.73L990.72,325.96L988.3,327.94L977.55,326.66L977.88,288.53Z"/>
    <path class="ok-county" data-fips="40099" data-name="Murray" d="M846.5,413.8L846.5,421.19L861.02,421.18L861.02,435.93L853.63,435.95L853.6,465.22L833.16,465.28L831.25,463.6L832.81,462.25L832.13,458.04L788.52,457.9L788.53,435.8L817.29,435.84L816.08,434.21L817.24,433.22L815.5,433.27L814.34,431.69L815.38,428.23L814.44,426.94L815.46,426.19L813.47,426.16L812.89,425.01L814.47,424.48L813.07,422.51L814.13,422.11L813.09,420.87L810.86,420.62L809.62,416.17L817.5,416.2L817.46,413.75L846.5,413.8Z"/>
    <path class="ok-county" data-fips="40101" data-name="Muskogee" d="M1095.83,231.58L1095.14,263.24L1096.74,266.71L1100.15,270.1L1101.6,274.21L1102.76,274.65L1104.97,273.59L1106.53,274.64L1103.69,276.63L1101.55,283.61L1099.25,285.13L1096.76,289.27L1094.5,287.94L1091.22,289.79L1093.91,292.13L1092.99,293.75L1090.27,292.55L1088.63,293.8L1088.17,294.98L1089.79,298.92L1089.51,300.88L1085.92,300.92L1082.68,306.32L1079.46,308.0L1071.86,301.29L1069.86,301.14L1065.82,302.7L1065.77,258.83L1014.95,258.91L1014.93,229.44L1007.59,229.47L1007.6,207.34L1023.59,207.29L1025.14,210.92L1025.24,219.0L1032.12,222.92L1037.75,218.76L1047.92,216.13L1054.57,217.17L1063.51,213.4L1065.85,214.58L1095.82,214.73L1095.83,231.58Z"/>
    <path class="ok-county" data-fips="40103" data-name="Noble" d="M829.23,82.55L836.77,84.43L844.27,83.17L848.15,81.37L852.63,85.73L850.8,89.65L847.57,89.51L842.9,92.6L838.8,92.92L836.35,94.86L835.81,97.23L832.72,97.22L832.73,126.61L847.53,126.63L847.51,141.31L817.68,141.34L817.72,156.09L788.27,156.1L788.28,155.23L773.52,155.2L773.4,82.59L829.23,82.55Z"/>
    <path class="ok-county" data-fips="40105" data-name="Nowata" d="M1004.75,13.89L1057.12,13.9L1057.1,23.48L1053.8,23.46L1053.83,81.89L1001.6,81.91L1001.55,23.61L1004.75,23.6L1004.75,13.89Z"/>
    <path class="ok-county" data-fips="40107" data-name="Okfuskee" d="M889.57,244.15L948.7,244.13L948.66,258.89L963.17,258.85L963.23,288.5L977.88,288.53L977.87,303.24L914.33,303.21L914.34,273.15L913.64,274.71L911.0,274.77L909.64,273.83L907.87,276.43L908.38,278.45L906.57,279.76L903.54,279.26L900.17,274.86L900.02,275.7L898.73,275.46L898.79,276.47L896.59,277.89L898.52,278.75L898.32,281.38L898.97,280.7L899.33,282.08L901.12,282.81L901.83,284.49L901.21,286.15L898.41,285.47L898.52,284.17L895.65,284.24L894.4,282.64L892.45,285.1L891.53,284.69L890.87,285.57L889.14,284.44L889.57,244.15Z"/>
    <path class="ok-county" data-fips="40109" data-name="Oklahoma" d="M817.59,281.16L817.58,288.53L744.45,288.45L744.07,229.42L817.69,229.69L817.59,281.16Z"/>
    <path class="ok-county" data-fips="40111" data-name="Okmulgee" d="M992.47,279.21L992.48,288.55L963.23,288.5L963.17,258.85L948.66,258.89L948.71,207.24L1007.6,207.34L1007.59,229.47L1014.93,229.44L1014.95,258.91L999.84,258.92L999.69,273.78L992.49,273.84L992.47,279.21Z"/>
    <path class="ok-county" data-fips="40113" data-name="Osage" d="M975.11,108.59L975.13,155.74L938.23,155.61L938.12,153.64L941.73,149.15L940.22,145.16L928.25,144.05L921.87,137.82L915.94,135.33L912.2,126.8L908.52,126.98L905.37,131.66L903.48,132.74L899.51,132.49L897.0,130.84L896.07,129.51L896.51,126.23L898.4,123.8L901.55,122.77L903.48,120.69L902.65,116.42L900.61,115.26L896.0,119.6L893.86,119.65L892.16,118.34L891.53,114.78L887.59,110.99L882.07,111.87L878.24,109.94L876.36,108.01L876.1,106.35L877.73,100.77L875.17,97.86L875.36,94.99L874.09,91.09L871.21,87.81L869.01,87.33L861.95,91.74L857.23,100.44L854.39,103.33L849.36,103.82L845.57,105.94L839.66,104.15L836.2,100.23L836.35,94.86L839.68,92.57L843.69,92.28L847.57,89.51L850.8,89.65L852.63,85.73L848.15,81.37L844.27,83.17L836.77,84.43L829.41,82.72L829.28,81.85L831.11,81.36L829.97,79.35L830.05,74.5L828.45,72.04L828.31,67.22L832.67,64.22L833.82,65.67L837.95,66.61L846.57,66.9L848.14,61.55L852.56,55.78L855.3,55.49L857.38,56.75L860.6,57.07L862.17,55.07L861.67,53.12L866.35,53.12L866.36,50.68L871.36,50.66L871.72,13.94L975.19,13.96L975.11,108.59Z"/>
    <path class="ok-county" data-fips="40115" data-name="Ottawa" d="M1113.49,69.51L1113.53,23.37L1114.37,22.39L1110.36,20.41L1108.27,18.17L1109.56,17.71L1108.72,14.75L1112.38,13.85L1166.19,14.09L1166.19,69.99L1113.49,69.51Z"/>
    <path class="ok-county" data-fips="40117" data-name="Pawnee" d="M870.08,87.53L873.46,89.93L875.36,94.99L875.17,97.86L877.51,100.1L877.81,102.01L876.1,106.35L876.36,108.01L878.33,110.02L882.07,111.87L887.59,110.99L891.53,114.78L892.16,118.34L893.86,119.65L896.0,119.6L900.61,115.26L902.65,116.42L903.48,120.69L901.55,122.77L898.4,123.8L896.51,126.23L896.07,129.51L897.0,130.84L899.51,132.49L903.48,132.74L905.37,131.66L908.52,126.98L912.08,126.73L914.33,130.18L915.94,135.33L921.87,137.82L928.25,144.05L940.22,145.16L941.73,149.15L938.12,153.64L938.23,155.61L862.16,156.14L862.17,141.31L847.51,141.31L847.53,126.63L832.73,126.61L832.72,97.22L835.81,97.23L836.41,100.77L839.66,104.15L846.31,105.81L849.26,103.85L854.61,103.18L857.52,99.99L861.95,91.74L867.11,88.16L870.08,87.53Z"/>
    <path class="ok-county" data-fips="40119" data-name="Payne" d="M847.51,141.31L862.17,141.31L862.16,156.14L889.46,155.97L889.5,192.94L817.75,192.89L817.76,189.99L815.18,192.4L811.46,193.04L808.73,192.19L806.78,189.2L804.8,188.19L798.67,187.35L797.64,186.37L797.46,183.6L795.67,181.47L791.64,181.73L788.28,185.59L788.27,156.1L817.72,156.09L817.68,141.34L847.51,141.31Z"/>
    <path class="ok-county" data-fips="40121" data-name="Pittsburg" d="M1051.1,302.21L1050.59,325.16L1065.17,325.18L1065.16,347.35L1043.31,347.37L1042.39,421.01L991.57,421.12L991.58,406.4L962.57,406.38L963.02,343.89L965.62,342.92L966.88,336.81L971.16,331.94L974.03,332.21L973.6,327.75L979.76,326.48L985.58,328.12L988.3,327.94L990.72,325.96L993.27,320.73L997.56,321.12L1002.47,319.07L1005.03,319.25L1007.39,322.11L1008.88,322.37L1010.9,319.73L1014.36,320.33L1015.75,318.07L1019.53,317.86L1020.3,316.95L1019.12,315.68L1019.93,314.26L1027.2,310.33L1029.29,310.11L1030.09,311.62L1027.45,314.28L1030.64,314.79L1034.48,310.86L1042.3,307.76L1041.73,304.71L1043.86,301.55L1049.66,302.72L1051.1,302.21Z"/>
    <path class="ok-county" data-fips="40123" data-name="Pontotoc" d="M868.15,369.25L870.94,369.27L874.08,376.17L876.92,376.05L879.41,374.57L880.5,371.28L877.02,366.48L878.68,364.11L881.02,363.66L883.57,364.59L885.93,368.87L887.34,369.45L890.6,369.16L895.58,366.43L898.1,366.65L899.88,372.24L902.05,374.32L903.26,374.34L907.71,367.27L910.34,366.36L916.41,368.68L919.18,363.76L919.15,406.45L904.56,406.48L904.51,436.01L861.02,435.93L861.02,421.18L846.5,421.19L846.75,358.34L849.48,359.26L853.0,364.8L857.56,364.37L862.6,361.5L865.04,364.16L864.92,368.16L868.15,369.25Z"/>
    <path class="ok-county" data-fips="40125" data-name="Pottawatomie" d="M888.98,273.99L889.14,284.44L888.12,285.88L887.38,284.73L885.12,286.0L881.95,283.86L879.98,283.96L878.13,281.78L875.94,282.59L876.25,281.21L875.2,280.36L873.36,281.23L874.03,281.92L872.86,282.15L872.67,283.45L869.05,282.81L868.35,283.6L868.01,282.68L868.15,369.25L864.92,368.16L865.04,364.16L862.6,361.5L857.56,364.37L853.0,364.8L849.48,359.26L846.56,358.1L844.4,359.21L842.06,362.94L835.63,367.76L825.12,363.83L821.21,365.62L819.77,363.22L817.8,364.66L817.66,273.76L888.98,273.99Z"/>
    <path class="ok-county" data-fips="40127" data-name="Pushmataha" d="M1105.2,406.35L1122.03,406.33L1122.05,435.78L1106.97,435.72L1107.0,480.34L1092.54,480.3L1092.53,495.0L1005.77,495.06L1005.77,435.84L1020.65,435.8L1020.61,421.06L1042.39,421.01L1042.36,406.29L1105.2,406.35Z"/>
    <path class="ok-county" data-fips="40129" data-name="Roger Mills" d="M508.27,180.85L508.83,258.92L510.62,258.93L510.6,266.18L481.39,266.16L481.37,280.93L422.71,280.82L422.71,203.19L426.81,201.76L435.42,195.21L435.0,189.49L437.49,185.53L440.41,184.95L443.27,182.17L448.48,182.52L450.08,187.85L448.98,195.08L450.2,198.17L453.13,200.4L453.68,201.97L455.77,203.23L457.79,203.02L461.84,206.78L475.18,209.79L477.77,207.44L483.75,205.73L484.83,200.18L489.72,195.6L491.97,187.53L493.6,185.57L494.94,185.47L498.75,182.01L508.27,180.85Z"/>
    <path class="ok-county" data-fips="40131" data-name="Rogers" d="M1052.65,160.48L1052.64,170.31L1034.49,170.3L1033.33,168.99L1036.51,169.13L1037.1,167.56L1034.68,164.3L1034.99,161.04L1031.74,159.84L1031.43,161.12L1029.9,160.45L1028.14,157.91L1027.99,155.5L1000.8,155.53L1001.23,116.25L1003.71,116.26L1003.7,111.34L1001.21,111.34L1001.21,81.9L1068.07,81.89L1068.12,96.67L1053.27,96.69L1052.65,160.48Z"/>
    <path class="ok-county" data-fips="40133" data-name="Seminole" d="M914.33,303.21L914.33,332.71L907.55,332.69L907.51,367.37L906.19,370.35L904.22,373.74L902.28,374.39L899.38,371.42L898.1,366.65L895.58,366.43L890.6,369.16L887.34,369.45L885.93,368.87L883.39,364.44L879.71,363.6L876.94,366.89L880.32,370.5L879.66,374.12L876.31,376.3L874.12,376.2L870.94,369.27L868.15,369.25L868.01,282.68L868.35,283.6L869.05,282.81L872.67,283.45L872.86,282.15L874.03,281.92L873.36,281.23L875.2,280.36L876.25,281.21L875.88,282.56L878.13,281.78L879.98,283.96L881.95,283.86L885.12,286.0L887.34,284.73L888.12,285.88L889.08,284.44L890.87,285.57L891.53,284.69L892.45,285.1L894.4,282.64L895.65,284.24L898.52,284.17L898.37,285.44L901.11,286.18L901.83,284.59L901.12,282.81L899.33,282.08L898.97,280.7L898.32,281.38L898.52,278.75L896.59,277.89L898.79,276.47L898.73,275.46L900.02,275.7L900.17,274.86L903.54,279.26L906.57,279.76L908.38,278.45L907.87,276.43L909.64,273.83L911.0,274.77L913.64,274.71L914.34,273.15L914.33,303.21Z"/>
    <path class="ok-county" data-fips="40135" data-name="Sequoyah" d="M1191.82,285.91L1190.86,288.52L1186.46,288.51L1184.41,290.17L1183.17,292.76L1182.94,297.07L1180.4,300.06L1176.6,300.69L1172.54,296.84L1169.4,296.8L1165.2,301.95L1162.06,303.02L1158.49,301.74L1156.96,296.91L1154.32,296.03L1148.95,292.06L1144.48,292.52L1142.07,296.73L1139.44,297.63L1137.77,296.56L1137.06,291.11L1135.24,289.5L1131.54,292.13L1125.25,293.49L1124.58,292.37L1128.18,288.82L1126.99,284.95L1123.69,285.82L1120.16,283.19L1112.83,282.32L1110.15,279.48L1109.99,275.62L1104.97,273.59L1101.82,274.38L1100.15,270.1L1096.6,266.48L1095.14,263.24L1095.82,244.17L1186.28,244.22L1191.82,285.91Z"/>
    <path class="ok-county" data-fips="40137" data-name="Stephens" d="M744.83,406.25L759.43,406.29L759.45,472.66L679.84,472.53L679.48,406.29L744.83,406.25Z"/>
    <path class="ok-county" data-fips="40139" data-name="Texas" d="M142.6,14.93L292.14,14.07L292.16,39.4L291.01,39.48L290.97,98.47L142.03,98.31L142.6,14.93Z"/>
    <path class="ok-county" data-fips="40141" data-name="Tillman" d="M584.91,421.0L584.93,435.72L607.62,435.71L607.63,465.14L614.84,465.1L614.75,494.99L609.51,493.75L603.64,499.08L597.6,498.6L596.54,500.34L594.46,500.49L593.45,498.62L590.13,496.76L589.05,497.42L586.74,494.76L584.23,494.14L583.41,495.09L580.85,494.23L580.22,496.21L579.12,496.26L578.18,495.24L578.45,493.39L572.18,490.81L567.62,485.64L566.41,485.46L565.61,487.47L564.67,487.28L562.52,484.1L560.8,484.72L560.64,486.03L559.09,487.18L555.84,486.57L554.74,488.06L549.91,485.78L543.42,487.22L542.86,484.44L539.7,486.5L534.64,485.25L533.67,480.23L534.43,477.95L533.34,477.45L533.88,474.05L532.01,473.31L531.41,469.23L532.47,467.55L531.79,464.48L533.87,463.83L534.27,461.52L532.22,458.24L530.48,458.09L531.95,455.09L529.29,455.96L529.67,453.76L528.42,453.69L528.01,449.64L528.51,449.0L529.4,450.56L530.22,449.82L529.14,445.77L531.47,444.23L530.37,443.22L531.22,439.98L529.91,440.3L530.22,438.17L532.11,436.32L533.87,429.33L536.21,430.23L537.26,428.97L536.13,428.51L535.36,426.55L538.25,422.13L542.64,421.36L543.69,422.9L546.85,421.02L547.81,422.18L549.28,421.81L549.13,418.69L548.2,417.9L549.76,417.53L549.81,416.24L546.65,413.59L560.76,413.62L560.78,420.98L584.91,421.0Z"/>
    <path class="ok-county" data-fips="40143" data-name="Tulsa" d="M1008.23,187.48L1008.22,199.83L1000.24,199.79L1000.24,207.38L970.72,207.28L971.21,170.28L934.16,170.22L934.15,155.57L975.13,155.74L975.14,111.32L1003.7,111.34L1003.71,116.26L1001.23,116.25L1000.8,155.53L1008.22,155.51L1008.23,187.48Z"/>
    <path class="ok-county" data-fips="40145" data-name="Wagoner" d="M1008.22,180.09L1008.22,155.53L1027.99,155.5L1028.14,157.91L1029.9,160.45L1031.43,161.12L1031.74,159.84L1034.99,161.04L1034.68,164.3L1037.1,167.56L1036.51,169.13L1033.33,168.99L1034.49,170.3L1084.71,170.4L1084.7,176.29L1082.3,176.3L1082.29,181.48L1081.07,182.66L1081.05,184.51L1078.6,185.1L1074.91,189.35L1076.33,194.58L1074.5,197.1L1074.45,199.04L1077.83,203.81L1081.34,204.61L1081.73,207.6L1078.46,211.15L1078.11,212.72L1076.62,213.44L1076.73,214.65L1065.85,214.58L1063.51,213.4L1054.57,217.17L1047.47,216.18L1036.99,219.06L1032.12,222.92L1025.24,219.0L1025.14,210.92L1023.59,207.29L1000.24,207.38L1000.24,199.79L1008.22,199.83L1008.22,180.09Z"/>
    <path class="ok-county" data-fips="40147" data-name="Washington" d="M1001.6,69.64L1001.21,111.34L975.14,111.32L975.19,13.96L1004.75,13.89L1004.75,23.6L1001.55,23.61L1001.6,69.64Z"/>
    <path class="ok-county" data-fips="40149" data-name="Washita" d="M510.57,273.54L612.94,273.7L613.25,335.83L611.3,331.77L610.69,331.46L609.85,333.42L609.15,332.74L610.27,332.01L609.07,331.29L606.17,332.17L605.48,334.04L604.5,332.96L604.53,334.17L602.7,333.37L600.62,334.58L599.56,333.96L600.02,333.13L598.03,332.99L597.39,335.21L595.57,332.6L511.16,332.56L510.57,273.54Z"/>
    <path class="ok-county" data-fips="40151" data-name="Woods" d="M497.88,13.86L623.77,13.94L625.33,115.74L622.1,114.98L616.18,116.84L612.65,116.59L602.74,112.77L598.64,107.66L591.61,107.13L587.45,105.05L582.5,97.35L566.38,97.24L566.43,81.65L564.5,81.22L559.11,74.67L557.79,74.3L557.73,71.28L554.21,66.78L554.76,65.36L552.64,62.18L549.23,60.9L547.44,57.43L543.42,53.96L541.58,50.5L538.07,49.21L526.17,50.15L523.57,49.36L520.46,46.85L520.12,44.27L517.05,40.46L517.49,38.11L509.21,34.15L505.99,27.18L502.22,22.62L499.96,14.88L497.88,13.86Z"/>
    <path class="ok-county" data-fips="40153" data-name="Woodward" d="M520.12,44.31L520.33,46.73L525.92,50.1L538.07,49.21L541.58,50.5L543.42,53.96L547.44,57.43L549.23,60.9L552.99,62.64L554.76,65.36L554.21,66.78L557.73,71.28L557.79,74.3L559.11,74.67L564.5,81.22L566.43,81.65L567.0,155.69L478.58,155.27L478.6,141.28L477.36,141.29L477.25,82.71L520.11,82.3L520.12,44.31Z"/>
  </g>
</svg>
